<?xml version="1.0" encoding="UTF-8" standalone="no"?>
<!DOCTYPE svg PUBLIC "-//W3C//DTD SVG 1.1//EN" "http://www.w3.org/Graphics/SVG/1.1/DTD/svg11.dtd">
<svg width="100%" height="100%" viewBox="0 0 24 24" version="1.1" xmlns="http://www.w3.org/2000/svg" xmlnsXlink="http://www.w3.org/1999/xlink" xmlSpace="preserve" xmlnsSerif="http://www.serif.com/" style="fill-rule:evenodd;clip-rule:evenodd;stroke-linejoin:round;stroke-miterlimit:2;">
    <g transform="matrix(1,0,0,1,-656,-4612)">
        <g transform="matrix(1,0,0,1,87.4061,-0.661359)">
            <g transform="matrix(0.146719,0,0,0.146719,435.231,4526.06)">
                <path d="M979.175,646.608C982.481,644.951 986.211,644.018 990.158,644.018C994.214,644.018 998.042,645.003 1001.42,646.748L1027.04,597.083C1059.45,613.802 1076.56,650.237 1068.72,685.856L1014.14,673.85C1012.86,679.715 1009.47,684.799 1004.81,688.271L1039.19,734.572C1009.9,756.312 969.659,755.631 941.128,732.912L976.248,688.807C970.784,685.042 966.918,679.122 965.88,672.278L912.402,686.455C903.056,651.202 918.597,614.072 950.269,595.987L979.175,646.608Z" style="fill:rgb(248,155,158);"/>
            </g>
            <g transform="matrix(0.782159,0,0,0.782159,12.4596,4334.4)">
                <circle cx="726.253" cy="370.722" r="4.356" style="fill:rgb(247,117,121);"/>
                <path d="M726.253,364.442C722.787,364.442 719.973,367.256 719.973,370.722C719.973,374.189 722.787,377.003 726.253,377.003C729.72,377.003 732.534,374.189 732.534,370.722C732.534,367.256 729.72,364.442 726.253,364.442ZM726.253,366.367C728.657,366.367 730.609,368.318 730.609,370.722C730.609,373.126 728.657,375.078 726.253,375.078C723.849,375.078 721.898,373.126 721.898,370.722C721.898,368.318 723.849,366.367 726.253,366.367Z" style="fill:rgb(226,14,47);"/>
            </g>
        </g>
    </g>
</svg>
