
<svg width="100%" height="100%" viewBox="0 0 73 123" version="1.1" xmlns="http://www.w3.org/2000/svg" xmlnsXlink="http://www.w3.org/1999/xlink" xmlSpace="preserve" xmlnsSerif="http://www.serif.com/" style="fill-rule:evenodd;clip-rule:evenodd;stroke-linecap:round;stroke-linejoin:round;stroke-miterlimit:1.5;">
    <g transform="matrix(1,0,0,1,-351,-4582)">
        <g transform="matrix(1,0,0,1,87.4061,-0.661359)">
            <g transform="matrix(1.01033,0,0,1.00784,-2.3829,-35.8363)">
                <g transform="matrix(0.71399,0,0,1,206.804,4230.98)">
                    <path d="M180.264,369.715C180.264,359.721 168.928,351.607 154.965,351.607L104.366,351.607C90.403,351.607 79.067,359.721 79.067,369.715L79.067,455.542C79.067,465.536 90.403,473.65 104.366,473.65L154.965,473.65C168.928,473.65 180.264,465.536 180.264,455.542L180.264,369.715Z" style="fill:rgb(252,252,252);"/>
                </g>
                <g transform="matrix(1,0,0,1,169.719,4242.57)">
                    <g transform="matrix(1,0,0,1,-7.85993,-10.1404)">
                        <path d="M137.264,418.854L137.264,437.73" style="fill:none;stroke:rgb(222,222,222);stroke-width:1.5px;"/>
                    </g>
                    <g transform="matrix(0.781004,0,0,0.781004,-2.67318,208.279)">
                        <circle cx="170.078" cy="222.216" r="33.802" style="fill:white;"/>
                        <path d="M170.078,186.411C150.318,186.411 134.278,202.456 134.278,222.216C134.278,241.976 150.318,258.021 170.078,258.021C189.838,258.021 205.878,241.976 205.878,222.216C205.878,202.456 189.838,186.411 170.078,186.411ZM170.078,188.414C188.734,188.414 203.88,203.56 203.88,222.216C203.88,240.872 188.734,256.019 170.078,256.019C151.422,256.019 136.275,240.872 136.275,222.216C136.275,203.56 151.422,188.414 170.078,188.414Z" style="fill:rgb(245,245,245);"/>
                    </g>
                    <g transform="matrix(0.666266,0,0,0.666266,23.313,227.577)">
                        <circle cx="160.364" cy="231.519" r="28.588" style="fill:url(#_Linear1);stroke:rgb(70,153,87);stroke-width:6.09px;"/>
                    </g>
                </g>
            </g>
        </g>
    </g>
    <defs>
        <linearGradient id="_Linear1" x1="0" y1="0" x2="1" y2="0" gradientUnits="userSpaceOnUse" gradientTransform="matrix(8.44066e-14,52.2466,-52.2466,8.44066e-14,160.364,207.86)"><stop offset="0" style="stop-color:rgb(125,197,139);stop-opacity:1"/><stop offset="1" style="stop-color:rgb(38,169,64);stop-opacity:1"/></linearGradient>
    </defs>
</svg>
