<?xml version="1.0" encoding="UTF-8" standalone="no"?>
<!DOCTYPE svg PUBLIC "-//W3C//DTD SVG 1.1//EN" "http://www.w3.org/Graphics/SVG/1.1/DTD/svg11.dtd">
<svg width="97px" height="97px" version="1.1" xmlns="http://www.w3.org/2000/svg" xmlns:xlink="http://www.w3.org/1999/xlink" xml:space="preserve" xmlns:serif="http://www.serif.com/" style="fill-rule:evenodd;clip-rule:evenodd;stroke-miterlimit:1.5;">
    <g>
        <path d="M14.703,81.032C-3.128,62.502 -2.561,32.981 15.968,15.149C34.498,-2.682 64.019,-2.115 81.851,16.415C99.682,34.945 99.115,64.465 80.585,82.297C62.055,100.128 32.535,99.561 14.703,81.032Z" style="fill:none;stroke:rgb(237,247,238);stroke-width:1.5px;"/>
        <path d="M77.743,20.9L82.134,16.712" style="fill:none;stroke:rgb(237,247,238);stroke-width:1.5px;"/>
        <path d="M14.703,81.032L19.094,76.843" style="fill:none;stroke:rgb(237,247,238);stroke-width:1.5px;"/>
        <path d="M20.447,19.547L16.258,15.156" style="fill:none;stroke:rgb(237,247,238);stroke-width:1.5px;"/>
        <path d="M80.578,82.587L76.39,78.196" style="fill:none;stroke:rgb(237,247,238);stroke-width:1.5px;"/>
        <path d="M49.375,8.357L49.518,2.291" style="fill:none;stroke:rgb(237,247,238);stroke-width:1.5px;"/>
        <path d="M47.319,95.452L47.462,89.386" style="fill:none;stroke:rgb(237,247,238);stroke-width:1.5px;"/>
        <path d="M7.904,47.915L1.838,47.772" style="fill:none;stroke:rgb(237,247,238);stroke-width:1.5px;"/>
        <path d="M94.999,49.971L88.933,49.828" style="fill:none;stroke:rgb(237,247,238);stroke-width:1.5px;"/>
        <path d="M38.856,9.49L37.425,3.593" style="fill:none;stroke:rgb(237,247,238);stroke-width:1.5px;"/>
        <path d="M59.412,94.15L57.98,88.253" style="fill:none;stroke:rgb(237,247,238);stroke-width:1.5px;"/>
        <path d="M9.037,58.434L3.14,59.865" style="fill:none;stroke:rgb(237,247,238);stroke-width:1.5px;"/>
        <path d="M93.697,37.878L87.8,39.31" style="fill:none;stroke:rgb(237,247,238);stroke-width:1.5px;"/>
        <path d="M28.99,13.307L26.08,7.982" style="fill:none;stroke:rgb(237,247,238);stroke-width:1.5px;"/>
        <path d="M70.756,89.762L67.847,84.436" style="fill:none;stroke:rgb(237,247,238);stroke-width:1.5px;"/>
        <path d="M12.854,68.3L7.528,71.21" style="fill:none;stroke:rgb(237,247,238);stroke-width:1.5px;"/>
        <path d="M89.309,26.534L83.983,29.443" style="fill:none;stroke:rgb(237,247,238);stroke-width:1.5px;"/>
        <path d="M28.99,13.307L26.08,7.982" style="fill:none;stroke:rgb(237,247,238);stroke-width:1.5px;"/>
        <path d="M70.756,89.762L67.847,84.436" style="fill:none;stroke:rgb(237,247,238);stroke-width:1.5px;"/>
        <path d="M12.854,68.3L7.528,71.21" style="fill:none;stroke:rgb(237,247,238);stroke-width:1.5px;"/>
        <path d="M89.309,26.534L83.983,29.443" style="fill:none;stroke:rgb(237,247,238);stroke-width:1.5px;"/>
    </g>
</svg>
