<?xml version="1.0" encoding="UTF-8" standalone="no"?>
<!DOCTYPE svg PUBLIC "-//W3C//DTD SVG 1.1//EN" "http://www.w3.org/Graphics/SVG/1.1/DTD/svg11.dtd">
<svg width="100%" height="100%" viewBox="0 0 411 104" version="1.1" xmlns="http://www.w3.org/2000/svg" xmlns:xlink="http://www.w3.org/1999/xlink" xml:space="preserve" xmlns:serif="http://www.serif.com/" style="fill-rule:evenodd;clip-rule:evenodd;stroke-linejoin:round;stroke-miterlimit:2;">
    <g transform="matrix(1,0,0,1,-1040,-3093)">
        <g transform="matrix(1,0,0,1,1.78019,2743.83)">
            <g transform="matrix(1.09896,0,0,1.6008,-249.957,-205.416)">
                <rect x="1173.33" y="346.489" width="372.039" height="64.675" style="fill:rgb(206,4,4);"/>
            </g>
            <g transform="matrix(1,0,0,1,-87.6182,2.18097)">
                <g transform="matrix(5.42345,0,0,6.13045,508.675,-501.523)">
                    <rect x="146.432" y="141.197" width="13.977" height="11.173" style="fill:rgb(255,48,57);"/>
                </g>
                <g transform="matrix(0.21091,0,0,0.21091,1132.34,256.34)">
                    <path d="M979.175,646.608C982.481,644.951 986.211,644.018 990.158,644.018C994.214,644.018 998.042,645.003 1001.42,646.748L1027.04,597.083C1059.45,613.802 1076.56,650.237 1068.72,685.856L1014.14,673.85C1012.86,679.715 1009.47,684.799 1004.81,688.271L1039.19,734.572C1009.9,756.312 969.659,755.631 941.128,732.912L976.248,688.807C970.784,685.042 966.918,679.122 965.88,672.278L912.402,686.455C903.056,651.202 918.597,614.072 950.269,595.987L979.175,646.608Z" style="fill:rgb(248,155,158);"/>
                </g>
                <g transform="matrix(1,0,0,1,-0.971707,-2.87832)">
                    <rect x="1308.52" y="362.923" width="13.915" height="77.215" style="fill:rgb(255,48,57);"/>
                </g>
                <g transform="matrix(1,0,0,1,51.1677,-2.87832)">
                    <rect x="1308.52" y="362.923" width="13.915" height="77.215" style="fill:rgb(255,48,57);"/>
                </g>
            </g>
            <g transform="matrix(1,0,0,1,-174.661,2.18097)">
                <g transform="matrix(5.42345,0,0,6.13045,508.675,-501.523)">
                    <rect x="146.432" y="141.197" width="13.977" height="11.173" style="fill:rgb(255,207,209);"/>
                </g>
                <g transform="matrix(1,0,0,1,-0.971707,-2.87832)">
                    <rect x="1308.52" y="362.923" width="13.915" height="77.215" style="fill:rgb(255,207,209);"/>
                </g>
                <g transform="matrix(1,0,0,1,51.1677,-2.87832)">
                    <rect x="1308.52" y="362.923" width="13.915" height="77.215" style="fill:rgb(255,207,209);"/>
                </g>
            </g>
            <g transform="matrix(1,0,0,1,-1.78019,-2709.62)">
                <path d="M1059.41,3144.38L1097.64,3144.38L1097.64,3149.06L1111.55,3149.06L1111.55,3144.38L1116.59,3144.38L1116.59,3075.88L1111.55,3075.88L1111.55,3071.85L1097.64,3071.85L1097.64,3075.88L1059.41,3075.88L1059.41,3071.85L1045.5,3071.85L1045.5,3075.88L1040.79,3075.88L1040.79,3144.38L1045.5,3144.38L1045.5,3149.06L1059.41,3149.06L1059.41,3144.38Z" style="fill:rgb(255,207,209);fill-opacity:0.7;"/>
            </g>
            <g transform="matrix(1,0,0,1,-1.4902,2.18097)">
                <g transform="matrix(5.42345,0,0,6.13045,508.675,-501.523)">
                    <rect x="146.432" y="141.197" width="13.977" height="11.173" style="fill:rgb(255,207,209);"/>
                </g>
                <g transform="matrix(1,0,0,1,-0.971707,-2.87832)">
                    <rect x="1308.52" y="362.923" width="13.915" height="77.215" style="fill:rgb(255,207,209);"/>
                </g>
                <g transform="matrix(1,0,0,1,51.1677,-2.87832)">
                    <rect x="1308.52" y="362.923" width="13.915" height="77.215" style="fill:rgb(255,207,209);"/>
                </g>
            </g>
        </g>
    </g>
</svg>
