<?xml version="1.0" encoding="UTF-8" standalone="no"?>
<!DOCTYPE svg PUBLIC "-//W3C//DTD SVG 1.1//EN" "http://www.w3.org/Graphics/SVG/1.1/DTD/svg11.dtd">
<svg width="100%" height="100%" viewBox="0 0 375 291" version="1.1" xmlns="http://www.w3.org/2000/svg" xmlns:xlink="http://www.w3.org/1999/xlink" xml:space="preserve" xmlns:serif="http://www.serif.com/" style="fill-rule:evenodd;clip-rule:evenodd;stroke-linejoin:round;stroke-miterlimit:2;">
    <g transform="matrix(1,0,0,1,-4661,-4832)">
        <g transform="matrix(1.1994,0,0,1,4000.9,4377.67)">
            <g transform="matrix(0.741043,0,0,0.741043,620.656,106.24)">
                <g>
                    <g transform="matrix(1.27645,0,0,1.53098,-1545.84,53.1093)">
                        <g transform="matrix(5.42345,0,0,6.13045,597.053,-501.523)">
                            <rect x="146.432" y="141.197" width="13.977" height="11.173" style="fill:rgb(231,231,231);"/>
                        </g>
                        <g transform="matrix(1,0,0,1,87.4061,-2.87832)">
                            <rect x="1308.52" y="362.923" width="13.915" height="77.215" style="fill:rgb(231,231,231);"/>
                        </g>
                        <g transform="matrix(1,0,0,1,139.546,-2.87832)">
                            <rect x="1308.52" y="362.923" width="13.915" height="77.215" style="fill:rgb(231,231,231);"/>
                        </g>
                    </g>
                    <g transform="matrix(1.27645,0,0,1.53098,-1659.21,53.1093)">
                        <g transform="matrix(5.42345,0,0,6.13045,597.053,-501.523)">
                            <rect x="146.432" y="141.197" width="13.977" height="11.173" style="fill:rgb(231,231,231);"/>
                        </g>
                        <g transform="matrix(1,0,0,1,87.4061,-2.87832)">
                            <rect x="1308.52" y="362.923" width="13.915" height="77.215" style="fill:rgb(231,231,231);"/>
                        </g>
                        <g transform="matrix(1,0,0,1,139.546,-2.87832)">
                            <rect x="1308.52" y="362.923" width="13.915" height="77.215" style="fill:rgb(231,231,231);"/>
                        </g>
                    </g>
                    <g transform="matrix(1.27645,0,0,1.53098,-1545.84,-78.8907)">
                        <g transform="matrix(5.42345,0,0,6.13045,508.675,-501.523)">
                            <rect x="146.432" y="141.197" width="13.977" height="11.173" style="fill:rgb(231,231,231);"/>
                        </g>
                        <g transform="matrix(1,0,0,1,-0.971707,-2.87832)">
                            <rect x="1308.52" y="362.923" width="13.915" height="77.215" style="fill:rgb(231,231,231);"/>
                        </g>
                        <g transform="matrix(1,0,0,1,51.1677,-2.87832)">
                            <rect x="1308.52" y="362.923" width="13.915" height="77.215" style="fill:rgb(231,231,231);"/>
                        </g>
                    </g>
                    <g transform="matrix(1.27645,0,0,1.53098,-1434.12,-78.8907)">
                        <g transform="matrix(5.42345,0,0,6.13045,508.675,-501.523)">
                            <rect x="146.432" y="141.197" width="13.977" height="11.173" style="fill:rgb(231,231,231);"/>
                        </g>
                        <g transform="matrix(1,0,0,1,-0.971707,-2.87832)">
                            <rect x="1308.52" y="362.923" width="13.915" height="77.215" style="fill:rgb(231,231,231);"/>
                        </g>
                        <g transform="matrix(1,0,0,1,51.1677,-2.87832)">
                            <rect x="1308.52" y="362.923" width="13.915" height="77.215" style="fill:rgb(231,231,231);"/>
                        </g>
                    </g>
                    <g transform="matrix(1.27645,0,0,1.53098,-1434.12,192.285)">
                        <g transform="matrix(5.42345,0,0,6.13045,508.675,-501.523)">
                            <rect x="146.432" y="141.197" width="13.977" height="11.173" style="fill:rgb(231,231,231);"/>
                        </g>
                        <g transform="matrix(1,0,0,1,-0.971707,-2.87832)">
                            <rect x="1308.52" y="362.923" width="13.915" height="77.215" style="fill:rgb(231,231,231);"/>
                        </g>
                        <g transform="matrix(1,0,0,1,51.1677,-2.87832)">
                            <rect x="1308.52" y="362.923" width="13.915" height="77.215" style="fill:rgb(231,231,231);"/>
                        </g>
                    </g>
                    <g transform="matrix(1.27645,0,0,1.53098,-1545.84,191.109)">
                        <g transform="matrix(5.42345,0,0,6.13045,508.675,-501.523)">
                            <rect x="146.432" y="141.197" width="13.977" height="11.173" style="fill:rgb(231,231,231);"/>
                        </g>
                        <g transform="matrix(1,0,0,1,-0.971707,-2.87832)">
                            <rect x="1308.52" y="362.923" width="13.915" height="77.215" style="fill:rgb(231,231,231);"/>
                        </g>
                        <g transform="matrix(1,0,0,1,51.1677,-2.87832)">
                            <rect x="1308.52" y="362.923" width="13.915" height="77.215" style="fill:rgb(231,231,231);"/>
                        </g>
                    </g>
                    <g transform="matrix(1.27645,0,0,1.53098,-1652.61,51.6678)">
                        <g transform="matrix(5.42345,0,0,6.13045,508.675,-501.523)">
                            <rect x="146.432" y="141.197" width="13.977" height="11.173" style="fill:rgb(231,231,231);"/>
                        </g>
                        <g transform="matrix(1,0,0,1,-0.971707,-2.87832)">
                            <rect x="1308.52" y="362.923" width="13.915" height="77.215" style="fill:rgb(231,231,231);"/>
                        </g>
                        <g transform="matrix(1,0,0,1,51.1677,-2.87832)">
                            <rect x="1308.52" y="362.923" width="13.915" height="77.215" style="fill:rgb(231,231,231);"/>
                        </g>
                    </g>
                    <g transform="matrix(1.27645,0,0,1.53098,-1757.25,51.6678)">
                        <g transform="matrix(5.42345,0,0,6.13045,508.675,-501.523)">
                            <rect x="146.432" y="141.197" width="13.977" height="11.173" style="fill:rgb(231,231,231);"/>
                        </g>
                        <g transform="matrix(1,0,0,1,-0.971707,-2.87832)">
                            <rect x="1308.52" y="362.923" width="13.915" height="77.215" style="fill:rgb(231,231,231);"/>
                        </g>
                        <g transform="matrix(1,0,0,1,51.1677,-2.87832)">
                            <rect x="1308.52" y="362.923" width="13.915" height="77.215" style="fill:rgb(231,231,231);"/>
                        </g>
                    </g>
                    <g transform="matrix(1.27645,0,0,1.53098,-1652.61,-80.3322)">
                        <g transform="matrix(5.42345,0,0,6.13045,508.675,-501.523)">
                            <rect x="146.432" y="141.197" width="13.977" height="11.173" style="fill:rgb(231,231,231);"/>
                        </g>
                        <g transform="matrix(1,0,0,1,-0.971707,-2.87832)">
                            <rect x="1308.52" y="362.923" width="13.915" height="77.215" style="fill:rgb(231,231,231);"/>
                        </g>
                        <g transform="matrix(1,0,0,1,51.1677,-2.87832)">
                            <rect x="1308.52" y="362.923" width="13.915" height="77.215" style="fill:rgb(231,231,231);"/>
                        </g>
                    </g>
                    <g transform="matrix(1.27645,0,0,1.53098,-1757.25,-80.3322)">
                        <g transform="matrix(5.42345,0,0,6.13045,508.675,-501.523)">
                            <rect x="146.432" y="141.197" width="13.977" height="11.173" style="fill:rgb(231,231,231);"/>
                        </g>
                        <g transform="matrix(1,0,0,1,-0.971707,-2.87832)">
                            <rect x="1308.52" y="362.923" width="13.915" height="77.215" style="fill:rgb(231,231,231);"/>
                        </g>
                        <g transform="matrix(1,0,0,1,51.1677,-2.87832)">
                            <rect x="1308.52" y="362.923" width="13.915" height="77.215" style="fill:rgb(231,231,231);"/>
                        </g>
                    </g>
                    <g transform="matrix(1.27645,0,0,1.53098,-1652.61,189.668)">
                        <g transform="matrix(5.42345,0,0,6.13045,508.675,-501.523)">
                            <rect x="146.432" y="141.197" width="13.977" height="11.173" style="fill:rgb(231,231,231);"/>
                        </g>
                        <g transform="matrix(1,0,0,1,-0.971707,-2.87832)">
                            <rect x="1308.52" y="362.923" width="13.915" height="77.215" style="fill:rgb(231,231,231);"/>
                        </g>
                        <g transform="matrix(1,0,0,1,51.1677,-2.87832)">
                            <rect x="1308.52" y="362.923" width="13.915" height="77.215" style="fill:rgb(231,231,231);"/>
                        </g>
                    </g>
                    <g transform="matrix(1.27645,0,0,1.53098,-1757.25,189.668)">
                        <g transform="matrix(5.42345,0,0,6.13045,508.675,-501.523)">
                            <rect x="146.432" y="141.197" width="13.977" height="11.173" style="fill:rgb(231,231,231);"/>
                        </g>
                        <g transform="matrix(1,0,0,1,-0.971707,-2.87832)">
                            <rect x="1308.52" y="362.923" width="13.915" height="77.215" style="fill:rgb(231,231,231);"/>
                        </g>
                        <g transform="matrix(1,0,0,1,51.1677,-2.87832)">
                            <rect x="1308.52" y="362.923" width="13.915" height="77.215" style="fill:rgb(231,231,231);"/>
                        </g>
                    </g>
                </g>
            </g>
        </g>
    </g>
</svg>
