<?xml version="1.0" encoding="UTF-8" standalone="no"?>
<!DOCTYPE svg PUBLIC "-//W3C//DTD SVG 1.1//EN" "http://www.w3.org/Graphics/SVG/1.1/DTD/svg11.dtd">
<svg width="100%" height="100%" viewBox="0 0 388 291" version="1.1" xmlns="http://www.w3.org/2000/svg" xmlns:xlink="http://www.w3.org/1999/xlink" xml:space="preserve" xmlns:serif="http://www.serif.com/" style="fill-rule:evenodd;clip-rule:evenodd;stroke-linecap:round;stroke-miterlimit:1.5;">
    <g transform="matrix(1,0,0,1,-1916,-4832)">
        <g transform="matrix(1.1994,0,0,1,1874.36,4377.67)">
            <g transform="matrix(0.741043,0,0,0.741043,105.356,106.24)">
                <g>
                    <g transform="matrix(1.27645,0,0,1.53098,-1545.84,53.1093)">
                        <g transform="matrix(5.42345,0,0,6.13045,597.053,-501.523)">
                            <rect x="146.432" y="141.197" width="13.977" height="11.173" style="fill:rgb(231,231,231);"/>
                        </g>
                        <g transform="matrix(1,0,0,1,87.4061,-2.87832)">
                            <rect x="1308.52" y="362.923" width="13.915" height="77.215" style="fill:rgb(231,231,231);"/>
                        </g>
                        <g transform="matrix(1,0,0,1,139.546,-2.87832)">
                            <rect x="1308.52" y="362.923" width="13.915" height="77.215" style="fill:rgb(231,231,231);"/>
                        </g>
                    </g>
                    <g transform="matrix(1.27645,0,0,1.53098,-1545.84,-78.8907)">
                        <g transform="matrix(5.42345,0,0,6.13045,508.675,-501.523)">
                            <rect x="146.432" y="141.197" width="13.977" height="11.173" style="fill:rgb(231,231,231);"/>
                        </g>
                        <g transform="matrix(1,0,0,1,-0.971707,-2.87832)">
                            <rect x="1308.52" y="362.923" width="13.915" height="77.215" style="fill:rgb(231,231,231);"/>
                        </g>
                        <g transform="matrix(1,0,0,1,51.1677,-2.87832)">
                            <rect x="1308.52" y="362.923" width="13.915" height="77.215" style="fill:rgb(231,231,231);"/>
                        </g>
                    </g>
                    <g transform="matrix(1.27645,0,0,1.53098,-1434.12,-78.8907)">
                        <g transform="matrix(5.42345,0,0,6.13045,508.675,-501.523)">
                            <rect x="146.432" y="141.197" width="13.977" height="11.173" style="fill:rgb(231,231,231);"/>
                        </g>
                        <g transform="matrix(1,0,0,1,-0.971707,-2.87832)">
                            <rect x="1308.52" y="362.923" width="13.915" height="77.215" style="fill:rgb(231,231,231);"/>
                        </g>
                        <g transform="matrix(1,0,0,1,51.1677,-2.87832)">
                            <rect x="1308.52" y="362.923" width="13.915" height="77.215" style="fill:rgb(231,231,231);"/>
                        </g>
                    </g>
                    <g transform="matrix(1.27645,0,0,1.53098,-1434.12,192.285)">
                        <g transform="matrix(5.42345,0,0,6.13045,508.675,-501.523)">
                            <rect x="146.432" y="141.197" width="13.977" height="11.173" style="fill:rgb(231,231,231);"/>
                        </g>
                        <g transform="matrix(1,0,0,1,-0.971707,-2.87832)">
                            <rect x="1308.52" y="362.923" width="13.915" height="77.215" style="fill:rgb(231,231,231);"/>
                        </g>
                        <g transform="matrix(1,0,0,1,51.1677,-2.87832)">
                            <rect x="1308.52" y="362.923" width="13.915" height="77.215" style="fill:rgb(231,231,231);"/>
                        </g>
                    </g>
                    <g transform="matrix(1.27645,0,0,1.53098,-1545.84,191.109)">
                        <g transform="matrix(5.42345,0,0,6.13045,508.675,-501.523)">
                            <rect x="146.432" y="141.197" width="13.977" height="11.173" style="fill:rgb(231,231,231);"/>
                        </g>
                        <g transform="matrix(1,0,0,1,-0.971707,-2.87832)">
                            <rect x="1308.52" y="362.923" width="13.915" height="77.215" style="fill:rgb(231,231,231);"/>
                        </g>
                        <g transform="matrix(1,0,0,1,51.1677,-2.87832)">
                            <rect x="1308.52" y="362.923" width="13.915" height="77.215" style="fill:rgb(231,231,231);"/>
                        </g>
                    </g>
                    <g transform="matrix(1.27645,0,0,1.53098,-1652.61,51.6678)">
                        <g transform="matrix(5.42345,0,0,6.13045,508.675,-501.523)">
                            <rect x="146.432" y="141.197" width="13.977" height="11.173" style="fill:rgb(231,231,231);"/>
                        </g>
                        <g transform="matrix(1,0,0,1,-0.971707,-2.87832)">
                            <rect x="1308.52" y="362.923" width="13.915" height="77.215" style="fill:rgb(231,231,231);"/>
                        </g>
                        <g transform="matrix(1,0,0,1,51.1677,-2.87832)">
                            <rect x="1308.52" y="362.923" width="13.915" height="77.215" style="fill:rgb(231,231,231);"/>
                        </g>
                    </g>
                    <g transform="matrix(1.27645,0,0,1.53098,-1757.25,51.6678)">
                        <g transform="matrix(5.42345,0,0,6.13045,508.675,-501.523)">
                            <rect x="146.432" y="141.197" width="13.977" height="11.173" style="fill:rgb(231,231,231);"/>
                        </g>
                        <g transform="matrix(1,0,0,1,-0.971707,-2.87832)">
                            <rect x="1308.52" y="362.923" width="13.915" height="77.215" style="fill:rgb(231,231,231);"/>
                        </g>
                        <g transform="matrix(1,0,0,1,51.1677,-2.87832)">
                            <rect x="1308.52" y="362.923" width="13.915" height="77.215" style="fill:rgb(231,231,231);"/>
                        </g>
                    </g>
                    <g transform="matrix(1.27645,0,0,1.53098,-1652.61,-80.3322)">
                        <g transform="matrix(5.42345,0,0,6.13045,508.675,-501.523)">
                            <rect x="146.432" y="141.197" width="13.977" height="11.173" style="fill:rgb(231,231,231);"/>
                        </g>
                        <g transform="matrix(1,0,0,1,-0.971707,-2.87832)">
                            <rect x="1308.52" y="362.923" width="13.915" height="77.215" style="fill:rgb(231,231,231);"/>
                        </g>
                        <g transform="matrix(1,0,0,1,51.1677,-2.87832)">
                            <rect x="1308.52" y="362.923" width="13.915" height="77.215" style="fill:rgb(231,231,231);"/>
                        </g>
                    </g>
                    <g transform="matrix(1.27645,0,0,1.53098,-1757.25,-80.3322)">
                        <g transform="matrix(5.42345,0,0,6.13045,508.675,-501.523)">
                            <rect x="146.432" y="141.197" width="13.977" height="11.173" style="fill:rgb(231,231,231);"/>
                        </g>
                        <g transform="matrix(1,0,0,1,-0.971707,-2.87832)">
                            <rect x="1308.52" y="362.923" width="13.915" height="77.215" style="fill:rgb(231,231,231);"/>
                        </g>
                        <g transform="matrix(1,0,0,1,51.1677,-2.87832)">
                            <rect x="1308.52" y="362.923" width="13.915" height="77.215" style="fill:rgb(231,231,231);"/>
                        </g>
                    </g>
                    <g transform="matrix(1.27645,0,0,1.53098,-1652.61,189.668)">
                        <g transform="matrix(5.42345,0,0,6.13045,508.675,-501.523)">
                            <rect x="146.432" y="141.197" width="13.977" height="11.173" style="fill:rgb(231,231,231);"/>
                        </g>
                        <g transform="matrix(1,0,0,1,-0.971707,-2.87832)">
                            <rect x="1308.52" y="362.923" width="13.915" height="77.215" style="fill:rgb(231,231,231);"/>
                        </g>
                        <g transform="matrix(1,0,0,1,51.1677,-2.87832)">
                            <rect x="1308.52" y="362.923" width="13.915" height="77.215" style="fill:rgb(231,231,231);"/>
                        </g>
                    </g>
                    <g transform="matrix(1.27645,0,0,1.53098,-1757.25,189.668)">
                        <g transform="matrix(5.42345,0,0,6.13045,508.675,-501.523)">
                            <rect x="146.432" y="141.197" width="13.977" height="11.173" style="fill:rgb(231,231,231);"/>
                        </g>
                        <g transform="matrix(1,0,0,1,-0.971707,-2.87832)">
                            <rect x="1308.52" y="362.923" width="13.915" height="77.215" style="fill:rgb(231,231,231);"/>
                        </g>
                        <g transform="matrix(1,0,0,1,51.1677,-2.87832)">
                            <rect x="1308.52" y="362.923" width="13.915" height="77.215" style="fill:rgb(231,231,231);"/>
                        </g>
                    </g>
                </g>
                <g transform="matrix(1.34945,0,0,1.34945,-249.872,-143.865)">
                    <g transform="matrix(0.833747,0,0,1,-1502.99,-4389.8)">
                        <path d="M2150.78,4945.58L2150.78,4940.67L2133.84,4940.67L2133.84,4945.58L2128.1,4945.58L2128.1,5028.98L2133.84,5028.98L2133.84,5034.69L2150.78,5034.69L2150.78,5028.98L2197.32,5028.98L2197.32,5034.69L2214.27,5034.69L2214.27,5028.98L2220.4,5028.98L2220.4,4945.58L2214.27,4945.58L2214.27,4940.67L2197.32,4940.67L2197.32,4945.58L2150.78,4945.58Z" style="fill:rgb(255,96,103);"/>
                    </g>
                    <g transform="matrix(0.183427,0,0,0.220003,128.595,449.371)">
                        <path d="M979.175,646.608C982.481,644.951 986.211,644.018 990.158,644.018C994.214,644.018 998.042,645.003 1001.42,646.748L1027.04,597.083C1059.45,613.802 1076.56,650.237 1068.72,685.856L1014.14,673.85C1012.86,679.715 1009.47,684.799 1004.81,688.271L1039.19,734.572C1009.9,756.312 969.659,755.631 941.128,732.912L976.248,688.807C970.784,685.042 966.918,679.122 965.88,672.278L912.402,686.455C903.056,651.202 918.597,614.072 950.269,595.987L979.175,646.608Z" style="fill:rgb(226,14,47);"/>
                    </g>
                    <g transform="matrix(0.119725,0,0,0.143599,287.739,122.639)">
                        <circle cx="187.743" cy="3299.58" r="40.644" style="fill:rgb(226,14,47);"/>
                    </g>
                    <g transform="matrix(0.563145,0,0,0.675439,-948.036,-2744.71)">
                        <circle cx="2233.56" cy="4948.76" r="49.807" style="fill:none;stroke:rgb(226,14,47);stroke-width:7.48px;"/>
                    </g>
                    <g transform="matrix(0.718558,0,0,0.861842,-1295.16,-3667.17)">
                        <circle cx="2233.56" cy="4948.76" r="49.807" style="fill:none;stroke:rgb(226,14,47);stroke-width:2.65px;"/>
                    </g>
                    <g transform="matrix(0.919681,0,0,1.10307,-1744.38,-4860.95)">
                        <circle cx="2233.56" cy="4948.76" r="49.807" style="fill:none;stroke:rgb(226,14,47);stroke-width:1.15px;"/>
                    </g>
                </g>
            </g>
        </g>
    </g>
</svg>
