<?xml version="1.0" encoding="UTF-8" standalone="no"?>
<!DOCTYPE svg PUBLIC "-//W3C//DTD SVG 1.1//EN" "http://www.w3.org/Graphics/SVG/1.1/DTD/svg11.dtd">
<svg width="100%" height="100%" viewBox="0 0 280 280" version="1.1" xmlns="http://www.w3.org/2000/svg" xmlns:xlink="http://www.w3.org/1999/xlink" xml:space="preserve" xmlns:serif="http://www.serif.com/" style="fill-rule:evenodd;clip-rule:evenodd;stroke-linecap:round;stroke-miterlimit:1.5;">
    <g transform="matrix(1,0,0,1,-2531,-4547)">
        <g transform="matrix(1.1994,0,0,1,1874.36,4377.67)">
            <g transform="matrix(1,0,0,1,-409.455,-786.996)">
                <g transform="matrix(0.35281,0,0,0.423161,149.287,-1209.37)">
                    <path d="M2553.6,5391.23C2553.54,5389.64 2553.51,5388.04 2553.51,5386.44C2553.51,5325.16 2596.36,5274.59 2651.48,5267.72L2651.48,5261.05C2651.48,5257.5 2654.36,5254.63 2657.9,5254.63L2670.74,5254.63C2674.29,5254.63 2677.16,5257.5 2677.16,5261.05L2677.16,5267.72C2732.28,5274.59 2775.14,5325.16 2775.14,5386.44C2775.14,5388.04 2775.11,5389.64 2775.05,5391.23L2786.11,5391.23C2788.05,5391.23 2789.63,5392.81 2789.63,5394.75L2789.63,5401.79C2789.63,5403.74 2788.05,5405.31 2786.11,5405.31L2535.49,5405.31C2533.55,5405.31 2531.97,5403.74 2531.97,5401.79L2531.97,5394.75C2531.97,5392.81 2533.55,5391.23 2535.49,5391.23L2553.6,5391.23Z" style="fill:rgb(241,93,97);"/>
                </g>
                <g transform="matrix(-0.152696,0,0,0.196227,1260.91,770.711)">
                    <path d="M1626.94,1837.26C1559.53,1837.26 1509.33,1806.68 1473.47,1743.77C1435.27,1676.74 1422.89,1638.83 1433.34,1620.84C1436.16,1616 1442.09,1610.22 1454.37,1610.22C1455.21,1610.22 1456.09,1610.25 1456.98,1610.3C1464.95,1610.79 1478.93,1616.99 1508.12,1664.99C1513.8,1674.32 1519.1,1683.68 1523.52,1691.78L1523.52,1480.7C1523.52,1462.4 1538.41,1447.51 1556.71,1447.51C1575.02,1447.51 1589.91,1462.4 1589.91,1480.7L1589.91,1564.43C1595.45,1560.28 1602.33,1557.81 1609.78,1557.81C1622.89,1557.81 1634.25,1565.45 1639.64,1576.51C1645.63,1570.65 1653.83,1567.03 1662.85,1567.03C1677.71,1567.03 1690.32,1576.84 1694.54,1590.32C1700.32,1585.44 1707.79,1582.5 1715.93,1582.5C1734.23,1582.5 1749.12,1597.39 1749.12,1615.69L1749.12,1731.48C1749.12,1732.18 1749.09,1732.91 1749.04,1733.72C1748.99,1769.12 1737.65,1795.9 1715.33,1813.31C1694.97,1829.2 1665.23,1837.26 1626.94,1837.26Z" style="fill:rgb(241,93,97);fill-rule:nonzero;"/>
                </g>
                <g transform="matrix(0.35281,0,0,0.423161,149.287,-1207.68)">
                    <path d="M2559.81,5463.69C2570.03,5502.94 2596.45,5549.66 2664.32,5549.66C2733.31,5549.66 2759.47,5501.43 2769.32,5461.85L2751.22,5410.87L2578.6,5410.78L2559.81,5463.69ZM2565.12,5410.78L2553.51,5410.77C2553.51,5410.77 2552.99,5422.44 2555.1,5439.01L2565.12,5410.78ZM2764.7,5410.88L2773.85,5436.63C2775.61,5421.39 2775.14,5410.88 2775.14,5410.88L2764.7,5410.88Z" style="fill:rgb(241,93,97);"/>
                </g>
                <g transform="matrix(0.868896,0,0,1.04216,-1680.89,-4637.75)">
                    <circle cx="3169.91" cy="5501.8" r="126.511" style="fill:none;stroke:rgb(241,93,97);stroke-width:8.05px;"/>
                </g>
            </g>
        </g>
    </g>
</svg>
