<?xml version="1.0" encoding="UTF-8" standalone="no"?>
<!DOCTYPE svg PUBLIC "-//W3C//DTD SVG 1.1//EN" "http://www.w3.org/Graphics/SVG/1.1/DTD/svg11.dtd">
<svg width="100%" height="100%" viewBox="0 0 224 102" version="1.1" xmlns="http://www.w3.org/2000/svg" xmlns:xlink="http://www.w3.org/1999/xlink" xml:space="preserve" xmlns:serif="http://www.serif.com/" style="fill-rule:evenodd;clip-rule:evenodd;stroke-linejoin:round;stroke-miterlimit:2;">
    <g transform="matrix(1,0,0,1,-1955,-5312)">
        <g transform="matrix(1.1994,0,0,1,1874.36,4377.67)">
            <g>
                <g transform="matrix(0.640052,0,0,0.767681,-1197.17,-3095.14)">
                    <path d="M1996.77,5254.5L1996.77,5249.92L1980.98,5249.92L1980.98,5254.5L1975.63,5254.5L1975.63,5332.21L1980.98,5332.21L1980.98,5337.52L1996.77,5337.52L1996.77,5332.21L2040.13,5332.21L2040.13,5337.52L2055.92,5337.52L2055.92,5332.21L2061.63,5332.21L2061.63,5254.5L2055.92,5254.5L2055.92,5249.92L2040.13,5249.92L2040.13,5254.5L1996.77,5254.5Z" style="fill:rgb(231,231,231);"/>
                </g>
                <g transform="matrix(0.640052,0,0,0.767681,-1133.43,-3095.14)">
                    <path d="M1996.77,5254.5L1996.77,5249.92L1980.98,5249.92L1980.98,5254.5L1975.63,5254.5L1975.63,5332.21L1980.98,5332.21L1980.98,5337.52L1996.77,5337.52L1996.77,5332.21L2040.13,5332.21L2040.13,5337.52L2055.92,5337.52L2055.92,5332.21L2061.63,5332.21L2061.63,5254.5L2055.92,5254.5L2055.92,5249.92L2040.13,5249.92L2040.13,5254.5L1996.77,5254.5Z" style="fill:rgb(231,231,231);"/>
                </g>
                <g transform="matrix(0.640052,0,0,0.767681,-1066.04,-3095.14)">
                    <path d="M1996.77,5254.5L1996.77,5249.92L1980.98,5249.92L1980.98,5254.5L1975.63,5254.5L1975.63,5332.21L1980.98,5332.21L1980.98,5337.52L1996.77,5337.52L1996.77,5332.21L2040.13,5332.21L2040.13,5337.52L2055.92,5337.52L2055.92,5332.21L2061.63,5332.21L2061.63,5254.5L2055.92,5254.5L2055.92,5249.92L2040.13,5249.92L2040.13,5254.5L1996.77,5254.5Z" style="fill:rgb(231,231,231);"/>
                </g>
                <g transform="matrix(0.833747,0,0,1,-1527.87,-4384.08)">
                    <path d="M1972.76,5413.97L1972.76,5395.41L1976.7,5395.41L1976.7,5410.72L1984.23,5410.72L1984.23,5413.97L1972.76,5413.97Z" style="fill:rgb(208,208,208);fill-rule:nonzero;"/>
                    <path d="M1990.23,5406.85C1990.23,5408.25 1990.46,5409.32 1990.92,5410.03C1991.38,5410.76 1992.13,5411.11 1993.18,5411.11C1994.21,5411.11 1994.95,5410.76 1995.4,5410.04C1995.86,5409.33 1996.08,5408.26 1996.08,5406.85C1996.08,5405.44 1995.85,5404.39 1995.4,5403.69C1994.94,5402.99 1994.19,5402.64 1993.15,5402.64C1992.12,5402.64 1991.37,5402.98 1990.92,5403.68C1990.46,5404.38 1990.23,5405.44 1990.23,5406.85ZM2000.04,5406.85C2000.04,5409.16 1999.43,5410.97 1998.22,5412.27C1997,5413.57 1995.3,5414.22 1993.12,5414.22C1991.76,5414.22 1990.56,5413.93 1989.52,5413.33C1988.48,5412.73 1987.68,5411.88 1987.12,5410.76C1986.56,5409.64 1986.28,5408.34 1986.28,5406.85C1986.28,5404.53 1986.89,5402.73 1988.1,5401.44C1989.31,5400.15 1991.01,5399.51 1993.2,5399.51C1994.56,5399.51 1995.77,5399.81 1996.81,5400.4C1997.85,5400.99 1998.65,5401.84 1999.21,5402.95C1999.76,5404.06 2000.04,5405.36 2000.04,5406.85Z" style="fill:rgb(208,208,208);fill-rule:nonzero;"/>
                    <path d="M2012.26,5413.97L2011.51,5412.04L2011.4,5412.04C2010.75,5412.86 2010.08,5413.43 2009.39,5413.75C2008.7,5414.07 2007.8,5414.22 2006.69,5414.22C2005.33,5414.22 2004.26,5413.84 2003.48,5413.06C2002.69,5412.28 2002.3,5411.17 2002.3,5409.73C2002.3,5408.22 2002.83,5407.11 2003.88,5406.4C2004.94,5405.68 2006.53,5405.29 2008.65,5405.21L2011.11,5405.14L2011.11,5404.51C2011.11,5403.07 2010.38,5402.36 2008.9,5402.36C2007.77,5402.36 2006.44,5402.7 2004.9,5403.38L2003.62,5400.77C2005.26,5399.91 2007.07,5399.49 2009.06,5399.49C2010.96,5399.49 2012.42,5399.9 2013.43,5400.73C2014.45,5401.56 2014.96,5402.82 2014.96,5404.51L2014.96,5413.97L2012.26,5413.97ZM2011.11,5407.4L2009.62,5407.45C2008.49,5407.48 2007.65,5407.68 2007.1,5408.06C2006.55,5408.43 2006.28,5408.99 2006.28,5409.76C2006.28,5410.85 2006.9,5411.39 2008.15,5411.39C2009.05,5411.39 2009.77,5411.14 2010.31,5410.62C2010.84,5410.1 2011.11,5409.42 2011.11,5408.56L2011.11,5407.4Z" style="fill:rgb(208,208,208);fill-rule:nonzero;"/>
                    <path d="M2023.44,5414.22C2021.77,5414.22 2020.46,5413.58 2019.51,5412.28C2018.56,5410.99 2018.08,5409.19 2018.08,5406.9C2018.08,5404.57 2018.57,5402.76 2019.54,5401.46C2020.5,5400.16 2021.84,5399.51 2023.54,5399.51C2025.33,5399.51 2026.69,5400.21 2027.63,5401.59L2027.75,5401.59C2027.56,5400.54 2027.46,5399.59 2027.46,5398.76L2027.46,5394.22L2031.35,5394.22L2031.35,5413.97L2028.38,5413.97L2027.63,5412.13L2027.46,5412.13C2026.58,5413.53 2025.24,5414.22 2023.44,5414.22ZM2024.8,5411.14C2025.79,5411.14 2026.51,5410.85 2026.97,5410.28C2027.43,5409.7 2027.69,5408.72 2027.73,5407.34L2027.73,5406.93C2027.73,5405.4 2027.49,5404.31 2027.02,5403.65C2026.56,5402.99 2025.79,5402.66 2024.73,5402.66C2023.87,5402.66 2023.2,5403.03 2022.72,5403.76C2022.24,5404.49 2022,5405.55 2022,5406.95C2022,5408.35 2022.25,5409.39 2022.73,5410.09C2023.21,5410.79 2023.9,5411.14 2024.8,5411.14Z" style="fill:rgb(208,208,208);fill-rule:nonzero;"/>
                    <path d="M2035.23,5396.11C2035.23,5394.85 2035.93,5394.22 2037.34,5394.22C2038.74,5394.22 2039.45,5394.85 2039.45,5396.11C2039.45,5396.71 2039.27,5397.18 2038.92,5397.51C2038.57,5397.85 2038.04,5398.01 2037.34,5398.01C2035.93,5398.01 2035.23,5397.38 2035.23,5396.11ZM2039.27,5413.97L2035.4,5413.97L2035.4,5399.78L2039.27,5399.78L2039.27,5413.97Z" style="fill:rgb(208,208,208);fill-rule:nonzero;"/>
                    <path d="M2056.43,5413.97L2052.56,5413.97L2052.56,5405.68C2052.56,5404.66 2052.38,5403.89 2052.01,5403.38C2051.65,5402.86 2051.07,5402.61 2050.27,5402.61C2049.19,5402.61 2048.41,5402.97 2047.92,5403.69C2047.44,5404.42 2047.2,5405.62 2047.2,5407.29L2047.2,5413.97L2043.33,5413.97L2043.33,5399.78L2046.29,5399.78L2046.81,5401.59L2047.02,5401.59C2047.46,5400.91 2048.05,5400.39 2048.81,5400.04C2049.57,5399.69 2050.43,5399.51 2051.39,5399.51C2053.04,5399.51 2054.29,5399.96 2055.15,5400.85C2056,5401.74 2056.43,5403.03 2056.43,5404.72L2056.43,5413.97Z" style="fill:rgb(208,208,208);fill-rule:nonzero;"/>
                    <path d="M2072.77,5399.78L2072.77,5401.75L2070.55,5402.32C2070.95,5402.95 2071.16,5403.66 2071.16,5404.45C2071.16,5405.97 2070.62,5407.16 2069.56,5408.01C2068.5,5408.86 2067.03,5409.29 2065.14,5409.29L2064.44,5409.25L2063.87,5409.19C2063.47,5409.49 2063.27,5409.83 2063.27,5410.2C2063.27,5410.76 2063.98,5411.04 2065.41,5411.04L2067.82,5411.04C2069.37,5411.04 2070.56,5411.37 2071.38,5412.04C2072.19,5412.71 2072.6,5413.69 2072.6,5414.99C2072.6,5416.65 2071.91,5417.93 2070.53,5418.85C2069.14,5419.76 2067.16,5420.22 2064.57,5420.22C2062.59,5420.22 2061.07,5419.87 2060.03,5419.18C2058.98,5418.49 2058.46,5417.53 2058.46,5416.28C2058.46,5415.43 2058.73,5414.71 2059.26,5414.14C2059.79,5413.56 2060.58,5413.15 2061.61,5412.9C2061.21,5412.73 2060.87,5412.46 2060.57,5412.07C2060.27,5411.69 2060.12,5411.28 2060.12,5410.85C2060.12,5410.31 2060.28,5409.86 2060.59,5409.5C2060.91,5409.14 2061.36,5408.78 2061.95,5408.44C2061.21,5408.11 2060.62,5407.6 2060.18,5406.89C2059.74,5406.18 2059.53,5405.34 2059.53,5404.37C2059.53,5402.82 2060.03,5401.63 2061.04,5400.78C2062.05,5399.94 2063.48,5399.51 2065.35,5399.51C2065.75,5399.51 2066.22,5399.55 2066.77,5399.62C2067.32,5399.69 2067.66,5399.74 2067.82,5399.78L2072.77,5399.78ZM2061.81,5415.98C2061.81,5416.51 2062.07,5416.93 2062.58,5417.23C2063.09,5417.54 2063.81,5417.69 2064.73,5417.69C2066.12,5417.69 2067.21,5417.5 2067.99,5417.12C2068.78,5416.74 2069.18,5416.22 2069.18,5415.56C2069.18,5415.02 2068.94,5414.66 2068.48,5414.45C2068.01,5414.25 2067.29,5414.15 2066.32,5414.15L2064.31,5414.15C2063.6,5414.15 2063.01,5414.32 2062.53,5414.65C2062.05,5414.98 2061.81,5415.43 2061.81,5415.98ZM2063.22,5404.42C2063.22,5405.19 2063.4,5405.8 2063.75,5406.25C2064.1,5406.7 2064.64,5406.93 2065.35,5406.93C2066.08,5406.93 2066.62,5406.7 2066.95,5406.25C2067.29,5405.8 2067.46,5405.19 2067.46,5404.42C2067.46,5402.72 2066.76,5401.86 2065.35,5401.86C2063.93,5401.86 2063.22,5402.72 2063.22,5404.42Z" style="fill:rgb(208,208,208);fill-rule:nonzero;"/>
                </g>
            </g>
        </g>
    </g>
</svg>
