<?xml version="1.0" encoding="UTF-8" standalone="no"?>
<!DOCTYPE svg PUBLIC "-//W3C//DTD SVG 1.1//EN" "http://www.w3.org/Graphics/SVG/1.1/DTD/svg11.dtd">
<svg width="100%" height="100%" viewBox="0 0 117 38" version="1.1" xmlns="http://www.w3.org/2000/svg" xmlns:xlink="http://www.w3.org/1999/xlink" xml:space="preserve" xmlns:serif="http://www.serif.com/" style="fill-rule:evenodd;clip-rule:evenodd;stroke-linejoin:round;stroke-miterlimit:2;">
    <g transform="matrix(1,0,0,1,-354.22,-145.17)">
        <g>
            <g transform="matrix(0.869311,0,0,0.869311,33.8154,54.3609)">
                <g transform="matrix(0.463009,0,0,0.463009,196.131,27.9193)">
                    <circle cx="416.007" cy="217.048" r="41.887" style="fill:rgb(226,226,226);"/>
                </g>
                <g transform="matrix(-0.225217,0,0,0.225217,628.4,-68.7848)">
                    <path d="M864.488,811.575L843.26,811.575L843.26,831.55L849.331,831.55L849.331,821.562L901.513,821.562L901.513,831.55L907.584,831.55L907.584,811.575L884.34,811.575L880.826,806.484L885.214,798.464L893.775,795.931L989.038,820.976L1011.4,913.054L1017.53,903.597L1000.32,823.695L1014.59,827.135L1020.92,898.375L1028.75,886.276L1031.27,831.158L1059.98,838.079L1006.05,921.315C1006.05,921.315 1024.74,947.556 1061.39,952.142C1062.83,952.322 1124.28,825.971 1120.76,822.018C1115.33,815.918 895.24,774.012 895.24,774.012L889.781,770.548L877.688,779.482L882.035,784.126L881.373,791.642L875.542,794.24L872.563,803.642L864.488,811.575Z" style="fill:rgb(151,151,151);"/>
                </g>
                <g transform="matrix(1.00239,0,0,1.00239,277.172,-8.01689)">
                    <rect x="146.432" y="141.197" width="13.977" height="11.173" style="fill:rgb(226,226,226);"/>
                </g>
                <g transform="matrix(1.00239,0,0,1.00239,261.926,-8.03644)">
                    <rect x="146.432" y="141.197" width="13.977" height="11.173" style="fill:rgb(226,226,226);"/>
                </g>
                <g transform="matrix(1.00239,0,0,1.00239,277.172,-20.8217)">
                    <rect x="146.432" y="141.197" width="13.977" height="11.173" style="fill:rgb(255,0,0);"/>
                </g>
            </g>
            <g transform="matrix(0.703135,0,0,0.703135,299.888,120.734)">
                <g transform="matrix(1,0,0,1,169.312,84.521)">
                    <rect x="1.477" y="-28.459" width="7.4" height="28.459" style="fill:rgb(153,153,153);fill-rule:nonzero;"/>
                </g>
                <g transform="matrix(1,0,0,1,179.683,84.521)">
                    <path d="M1.477,-28.459L6.715,-28.459C10.207,-28.459 12.571,-28.324 13.808,-28.055C15.044,-27.785 16.052,-27.097 16.831,-25.989C17.61,-24.882 18,-23.115 18,-20.689C18,-18.475 17.725,-16.986 17.174,-16.225C16.623,-15.463 15.539,-15.006 13.922,-14.854C15.387,-14.49 16.371,-14.004 16.875,-13.395C17.379,-12.785 17.692,-12.226 17.815,-11.716C17.938,-11.206 18,-9.803 18,-7.506L18,0L11.127,0L11.127,-9.457C11.127,-10.98 11.007,-11.924 10.767,-12.287C10.526,-12.65 9.896,-12.832 8.877,-12.832L8.877,0L1.477,0L1.477,-28.459ZM8.877,-23.59L8.877,-17.262C9.709,-17.262 10.292,-17.376 10.626,-17.604C10.96,-17.833 11.127,-18.574 11.127,-19.828L11.127,-21.393C11.127,-22.295 10.966,-22.887 10.644,-23.168C10.321,-23.449 9.732,-23.59 8.877,-23.59Z" style="fill:rgb(255,0,0);fill-rule:nonzero;"/>
                </g>
                <g transform="matrix(1,0,0,1,199.072,84.521)">
                    <path d="M24.311,-28.459L24.311,0L17.842,0L17.833,-19.213L15.258,0L10.67,0L7.954,-18.773L7.945,0L1.477,0L1.477,-28.459L11.052,-28.459C11.336,-26.748 11.629,-24.731 11.931,-22.409L12.981,-15.17L14.682,-28.459L24.311,-28.459Z" style="fill:rgb(153,153,153);fill-rule:nonzero;"/>
                    <path d="M40.074,-28.459L44.306,0L36.743,0L36.346,-5.115L33.698,-5.115L33.253,0L25.603,0L29.377,-28.459L40.074,-28.459ZM36.152,-10.16C35.777,-13.384 35.401,-17.368 35.024,-22.113C34.271,-16.664 33.797,-12.68 33.604,-10.16L36.152,-10.16Z" style="fill:rgb(153,153,153);fill-rule:nonzero;"/>
                </g>
            </g>
            <g transform="matrix(0.0516226,0,0,0.0516226,357.337,129.387)">
                <path d="M979.175,646.608C982.481,644.951 986.211,644.018 990.158,644.018C994.214,644.018 998.042,645.003 1001.42,646.748L1027.04,597.083C1059.45,613.802 1076.56,650.237 1068.72,685.856L1014.14,673.85C1012.86,679.715 1009.47,684.799 1004.81,688.271L1039.19,734.572C1009.9,756.312 969.659,755.631 941.128,732.912L976.248,688.807C970.784,685.042 966.918,679.122 965.88,672.278L912.402,686.455C903.056,651.202 918.597,614.072 950.269,595.987L979.175,646.608Z" style="fill:white;"/>
            </g>
        </g>
    </g>
</svg>
