<?xml version="1.0" encoding="UTF-8" standalone="no"?>
<!DOCTYPE svg PUBLIC "-//W3C//DTD SVG 1.1//EN" "http://www.w3.org/Graphics/SVG/1.1/DTD/svg11.dtd">
<svg width="43px" height="43px" version="1.1" xmlns="http://www.w3.org/2000/svg" xmlnsXlink="http://www.w3.org/1999/xlink" xmlSpace="preserve" xmlnsSerif="http://www.serif.com/" style="fill-rule:evenodd;clip-rule:evenodd;stroke-linecap:round;stroke-linejoin:round;stroke-miterlimit:1.5;">
    <g transform="matrix(1,0,0,1,-456,-4603)">
        <g transform="matrix(1,0,0,1,87.4061,-0.661359)">
            <g transform="matrix(0.781417,0,0,0.779489,10.0966,3926.92)">
                <g transform="matrix(0.853089,0,0,0.853089,349.511,698.134)">
                    <circle cx="160.364" cy="231.519" r="28.588" style="fill:url(#_Linear1);stroke:rgb(70,153,87);stroke-width:6.15px;"/>
                </g>
                <g transform="matrix(-0.253604,0.946462,-0.946462,-0.253604,866.891,335.421)">
                    <path d="M652.79,247.155C663.805,247.155 672.735,238.225 672.735,227.211C672.735,216.203 663.798,207.266 652.79,207.266C648.974,207.266 645.237,208.362 642.024,210.422L650.099,223.013C650.902,222.498 651.836,222.224 652.79,222.224C655.542,222.224 657.776,224.459 657.776,227.211C657.776,229.964 655.544,232.197 652.79,232.197L652.79,247.155Z" style="fill:rgb(104,185,121);"/>
                </g>
                <g transform="matrix(-0.253604,0.946462,-0.946462,-0.253604,866.891,335.421)">
                    <path d="M641.74,210.608C636.184,214.305 632.846,220.537 632.846,227.211C632.846,238.225 641.776,247.155 652.79,247.155L652.79,232.197C650.037,232.197 647.804,229.964 647.804,227.211C647.804,225.542 648.639,223.984 650.028,223.06L641.74,210.608Z" style="fill:rgb(229,255,230);"/>
                </g>
            </g>
        </g>
    </g>
    <defs>
        <linearGradient id="_Linear1" x1="0" y1="0" x2="1" y2="0" gradientUnits="userSpaceOnUse" gradientTransform="matrix(8.52334e-14,52.7583,-52.7583,8.52334e-14,15.5,207.24)"><stop offset="0" style="stop-color:rgb(125,197,139);stop-opacity:1"/><stop offset="1" style="stop-color:rgb(38,169,64);stop-opacity:1"/></linearGradient>
    </defs>
</svg>
